<?xml version="1.0" encoding="UTF-8"?>
<svg width="256px" height="256px" viewBox="0 0 256 256" version="1.1" xmlns="http://www.w3.org/2000/svg" xmlns:xlink="http://www.w3.org/1999/xlink">
    <!-- Generator: Sketch 47.1 (45422) - http://www.bohemiancoding.com/sketch -->
    <title>Artboard</title>
    <desc>Created with Sketch.</desc>
    <defs></defs>
    <g id="Page-1" stroke="none" stroke-width="1" fill="none" fill-rule="evenodd">
        <g id="Artboard">
            <g id="Papirus-Team-Papirus-Mimetypes-X-office-spreadsheet" transform="translate(42.000000, 52.000000)" fill-rule="nonzero">
                <path d="M6.0625,3 C2.703875,3 0,5.69829999 0,9.05000023 L0,117.95 C0,121.3017 2.703875,124 6.0625,124 L90.9375,124 C94.296125,124 97,121.3017 97,117.95 L97,39.3000002 L63.65625,36.2750002 L60.625,3 L6.0625,3 Z" id="Shape" fill="#000000" opacity="0.2"></path>
                <path d="M6.0625,0 C2.703875,0 0,2.6983 0,6.05 L0,114.95 C0,118.3017 2.703875,121 6.0625,121 L90.9375,121 C94.296125,121 97,118.3017 97,114.95 L97,36.3 L63.65625,33.275 L60.625,0 L6.0625,0 Z" id="Shape" fill="#4BAE4F"></path>
                <path d="M61,3 L61,33 C61,36.31392 63.68632,39 67,39 L97,39 L61,3 Z" id="Shape" fill="#000000" opacity="0.2"></path>
                <path d="M61,0 L61,30 C61,33.31392 63.68632,36 67,36 L97,36 L61,0 Z" id="Shape" fill="#95CD97"></path>
                <path d="M20,61 L20,105 L76,105 L76,61 L20,61 Z M27.3043478,68.3333333 L44.3478261,68.3333333 L44.3478261,73.2222222 L27.3043478,73.2222222 L27.3043478,68.3333333 Z M51.6521739,68.3333333 L68.6956522,68.3333333 L68.6956522,73.2222222 L51.6521739,73.2222222 L51.6521739,68.3333333 Z M27.3043478,80.5555556 L44.3478261,80.5555556 L44.3478261,85.4444444 L27.3043478,85.4444444 L27.3043478,80.5555556 Z M51.6521739,80.5555556 L68.6956522,80.5555556 L68.6956522,85.4444444 L51.6521739,85.4444444 L51.6521739,80.5555556 Z M27.3043478,92.7777778 L44.3478261,92.7777778 L44.3478261,97.6666667 L27.3043478,97.6666667 L27.3043478,92.7777778 Z M51.6521739,92.7777778 L68.6956522,92.7777778 L68.6956522,97.6666667 L51.6521739,97.6666667 L51.6521739,92.7777778 Z" id="Shape" fill="#000000" opacity="0.2"></path>
                <path d="M20,59 L20,103 L76,103 L76,59 L20,59 Z M27.3043478,66.3333333 L44.3478261,66.3333333 L44.3478261,71.2222222 L27.3043478,71.2222222 L27.3043478,66.3333333 Z M51.6521739,66.3333333 L68.6956522,66.3333333 L68.6956522,71.2222222 L51.6521739,71.2222222 L51.6521739,66.3333333 Z M27.3043478,78.5555556 L44.3478261,78.5555556 L44.3478261,83.4444444 L27.3043478,83.4444444 L27.3043478,78.5555556 Z M51.6521739,78.5555556 L68.6956522,78.5555556 L68.6956522,83.4444444 L51.6521739,83.4444444 L51.6521739,78.5555556 Z M27.3043478,90.7777778 L44.3478261,90.7777778 L44.3478261,95.6666667 L27.3043478,95.6666667 L27.3043478,90.7777778 Z M51.6521739,90.7777778 L68.6956522,90.7777778 L68.6956522,95.6666667 L51.6521739,95.6666667 L51.6521739,90.7777778 Z" id="Shape" fill="#FFFFFF"></path>
                <path d="M6.1,0 C2.7206,0 0,2.86714278 0,6.42857124 L0,9 C0,5.43857127 2.7206,2.5714285 6.1,2.5714285 L61,2.5714285 C61,0 61,2.5714285 61,0 L6.1,0 Z" id="Shape" fill="#FFFFFF" opacity="0.1"></path>
            </g>
            <g id="Papirus-Team-Papirus-Mimetypes-X-office-spreadsheet" transform="translate(117.000000, 81.000000)">
                <path d="M6.0625,3 C2.703875,3 0,5.69829999 0,9.05000023 L0,117.95 C0,121.3017 2.703875,124 6.0625,124 L90.9375,124 C94.296125,124 97,121.3017 97,117.95 L97,39.3000002 L63.65625,36.2750002 L60.625,3 L6.0625,3 Z" id="Shape" fill="#000000" fill-rule="nonzero" opacity="0.2"></path>
                <path d="M6.0625,0 C2.703875,0 0,2.6983 0,6.05 L0,114.95 C0,118.3017 2.703875,121 6.0625,121 L90.9375,121 C94.296125,121 97,118.3017 97,114.95 L97,36.3 L63.65625,33.275 L60.625,0 L6.0625,0 Z" id="Shape" fill="#9B9B9B" fill-rule="nonzero"></path>
                <path d="M61,3 L61,33 C61,36.31392 63.68632,39 67,39 L97,39 L61,3 Z" id="Shape" fill="#000000" fill-rule="nonzero" opacity="0.2"></path>
                <path d="M61,0 L61,30 C61,33.31392 63.68632,36 67,36 L97,36 L61,0 Z" id="Shape" fill="#E9E9E9" fill-rule="nonzero"></path>
                <text id="JSON" font-family="LucidaGrande-Bold, Lucida Grande" font-size="18" font-weight="bold" fill="#FFFFFF">
                    <tspan x="25" y="108">JSON</tspan>
                </text>
                <path d="M6.1,0 C2.7206,0 0,2.86714278 0,6.42857124 L0,9 C0,5.43857127 2.7206,2.5714285 6.1,2.5714285 L61,2.5714285 C61,0 61,2.5714285 61,0 L6.1,0 Z" id="Shape" fill="#FFFFFF" fill-rule="nonzero" opacity="0.1"></path>
            </g>
            <g id="afea4b64e0e502a959e91075fcb384c6" transform="translate(125.500000, 129.500000) scale(-1, 1) translate(-125.500000, -129.500000) translate(91.000000, 104.000000)" fill-rule="nonzero">
                <path d="M0,29.4714749 L29.5522449,51 L29.5522449,36.1529793 C29.5522449,36.1529793 67.4240816,36.3876602 68,2 C48.8559184,33.6957318 29.5522449,22.7899704 29.5522449,22.7899704 L29.5522449,7.94294971 L0,29.4714749 Z" id="Shape" fill="#C3B500"></path>
                <path d="M1,27.4714749 L30.5522449,49 L30.5522449,34.1529793 C30.5522449,34.1529793 68.4240816,34.3876602 69,0 C49.8559184,31.6957318 30.5522449,20.7899704 30.5522449,20.7899704 L30.5522449,5.94294971 L1,27.4714749 Z" id="Shape" fill="#F6E400"></path>
            </g>
        </g>
    </g>
</svg>